<?xml version="1.0" encoding="UTF-8"?>
<svg id="favicon" xmlns="http://www.w3.org/2000/svg" version="1.1" viewBox="0 0 512 512">
  <!-- Generator: Adobe Illustrator 29.0.1, SVG Export Plug-In . SVG Version: 2.1.0 Build 192)  -->
  <defs>
    <style>
      .st0 {
        fill: #fff;
      }

      .st1 {
        fill: #2e3191;
      }

      .st2 {
        fill: #ec1c24;
      }

      .st3 {
        fill: none;
        stroke: #ec1c24;
        stroke-linecap: round;
        stroke-linejoin: round;
      }
    </style>
  </defs>
  <path class="st0" d="M493,337.2c-4.5,13.2-10.1,25.8-16.7,37.9,6.6-12.1,12.1-24.7,16.7-37.9Z"/>
  <path class="st0" d="M473.4,380.3c-2.3,4-4.7,7.9-7.2,11.8,2.5-3.9,4.9-7.8,7.2-11.8Z"/>
  <path class="st0" d="M497.3,323.3c-1.3,4.5-2.6,9-4.2,13.4,1.5-4.4,2.9-8.9,4.2-13.4Z"/>
  <path class="st0" d="M498.7,318.1c-.3,1.1-.6,2.2-.9,3.3.3-1.1.6-2.2.9-3.3Z"/>
  <path class="st0" d="M465.1,393.7c-.7,1-1.4,2.1-2.1,3.1.7-1,1.4-2,2.1-3.1Z"/>
  <path class="st0" d="M500.1,312.3c-.2.8-.4,1.6-.6,2.4.2-.8.4-1.6.6-2.4Z"/>
  <path class="st0" d="M476.1,375.5c-.8,1.4-1.6,2.8-2.4,4.2.8-1.4,1.6-2.8,2.4-4.2Z"/>
  <path class="st0" d="M7.4,234.5c0-.6.1-1.2.2-1.8,0,.6-.1,1.2-.2,1.8Z"/>
  <path class="st0" d="M6.9,241.8c0-.8.1-1.6.2-2.4,0,.8-.1,1.6-.2,2.4Z"/>
  <path class="st0" d="M37.9,134.5c0-.1.1-.3.2-.4,0,.1-.1.3-.2.4Z"/>
  <path class="st0" d="M6.5,256s0,0,0,0c0-.9,0-1.7,0-2.6,0,.8,0,1.7,0,2.5Z"/>
  <path class="st0" d="M13,199.2c0-.2.1-.5.2-.7,0,.2-.1.5-.2.7Z"/>
  <path class="st0" d="M14.7,192.4c0-.2,0-.4.1-.6,0,.2,0,.4-.1.6Z"/>
  <path class="st0" d="M6.6,249c0-1.1,0-2.1.1-3.2,0,1.1,0,2.1-.1,3.2Z"/>
  <path class="st0" d="M19.6,335.9c-.4-1.3-.8-2.5-1.2-3.8.4,1.3.8,2.5,1.2,3.8Z"/>
  <path class="st0" d="M13.7,315.6c-.3-1.3-.6-2.6-.9-4,.3,1.3.6,2.6.9,4Z"/>
  <path class="st0" d="M21.6,341.6c-.5-1.2-.9-2.5-1.3-3.7.4,1.2.9,2.5,1.3,3.7Z"/>
  <path class="st0" d="M18,330.9c-.8-2.5-1.6-5.1-2.3-7.7.7,2.6,1.5,5.1,2.3,7.7Z"/>
  <path class="st0" d="M15.2,321.4c-.3-1.3-.7-2.5-1-3.8.3,1.3.7,2.6,1,3.8Z"/>
  <path class="st0" d="M8.1,284c1,9.3,2.6,18.5,4.6,27.5h132.6v138.9h27.8v-166.4H8.1Z"/>
  <path class="st0" d="M45,122.6s0,0,0-.1c0,0,0,0,0,.1Z"/>
  <path class="st0" d="M27.2,355.7c-1.8-4.1-3.5-8.3-5.1-12.5,1.6,4.2,3.3,8.4,5.1,12.5Z"/>
  <path class="st0" d="M506.4,263.2c0,.5,0,1,0,1.5,0-.5,0-1,0-1.5Z"/>
  <path class="st0" d="M413.6,179.7s0,0,0,0c0,0,0,0,0,0,0,0,0,0,0,0Z"/>
  <path class="st0" d="M422.7,261l22.9-13.2v-.5s.1,0,.1,0c0,0,.7-2.4-.6-2.6h-28s-2.2-.6-1.1-2.3l24.7-14.1h64.3c-7.4-67.2-41.5-126.3-91.4-166.6h0c42.8,34.7,73.9,83.2,86.5,138.7h-51.9c0-.2,0-.5,0-.7,0-.4-.3-.6-.8-.6h-26.4c0-.9,0-4.6,2.8-7.4s30-36.2,30.7-47.8c.4-6.6,1.1-13-.4-19.2-1.1-4.8-3.7-9.4-8.8-13.8-11.7-10.1-22-10.5-32.7-7.5-10.6,3-16.3,14.3-17.7,25-1.3,10.7-15.6,23.7-15.6,29.6,0,0,0,0,.1,0,0,0,0,0,0,.1,0,0,1.6,1.2,2.9,0,1.2-1.2,7.2-6.6,7.2-6.6,0,0,.7-.8,1.1-.1.1.3.2.7.2,1.3,0,2.9-3.7,15-10.6,24-6.9,9.1-9.8,19-8.9,22.3,0,.1,0,.2.1.3,1.1,3,10-10.6,19.4-17.1,9.5-6.6,18.6-9.8,17.9-29.2,0,0,1.7-1.1,3.1,4.9.6,2.8,1.2,7,1.5,13.5,0,.5,0,1,0,1.5,0,0,.1-.2.2-.3,0,0,0,.1.1.3,0-.3,0-.4,0-.5.8-1.5,6.7-12.4,6.7-20.6s-.8-19.2-13.5-24.1c0,0-1-6,.3-7.8,0,0,.1-.1.2-.2.1,0,.3-.3.6-.5.6-.6,1.6-1.7,3-2.9,0,0,.2-.1.2-.2.1-.1.3-.2.4-.4,5.6-4.7,16.3-10.4,30,3.1,0,0,10.7,14.4-1.9,35-3.2,5.3-8,10.9-14.8,16.9-3.9,3.4-7.5,6.5-10.8,9.5,0,0,0-.2-.1-.4,0,.2,0,.5,0,.6,0,0,0,0-.1,0,0,0,0-.2,0-.3-8.7,7.7-15.5,14.2-20.7,20h-48.3c.7-2.3,1.5-4.5,2.5-6.4,4.5-8.7,14.9-28.1,14.9-46.5s7.2-17.4,8-25.3c0,0-.2-1.1-.9-2.7-.8-1.8-2.5-4.4-5.9-6.2l9.7-15.1s-.1,0-.3-.2v-.2c.1,0-10.5-7.6-17.3.4,0,0,.2.9.7,1.9.6,1.4,2,3.3,4.8,3.5l-3.1,3.1s-8.5.6-15.7-3.2v-2l6.8-4.1s1.4-.7.3-2.4c-.2-.4-.5-.9-1-1.4l-6.1-6.1h-4.6l-9.7,4.6v2.3l.3.3h0c0,.1,4.4,4.3,4.4,4.3l-.5,1.6s-1.9,1.7-2.1,1.7-10.6,1.1-15.4-4.7l6.4-5.5v-3.2h-.2v-.4l-11.2-5.1h-4.4s4.3,15.2,4.3,17.6-1.9,7.9-5.2,10.7c-3.3,2.8-7.3,7-7.3,10.8s.3,1.7.7,2.6c1.3,3.1,4.5,6.4,5.2,7,.2,1.1.8,4.3.5,4.6s-1.6,4.7-1.6,4.7h.3c0,.3-.1.5-.1.5l20,2.8v3s-1.4,3.9-5.2,4.8c-3.7.9-27.9,4.4-36.5,13.4-4.9,5.1-12.8,20.8-18.6,34.6h-5v-3.9c0,0,4.8-9.5,4.8-9.5,0,0-.2-.2-.5-.5v-.2c.1,0-1.8-1.7-4.6-4.1V61.6h-27.6v85.2c-2,2.2-4.1,5.6-4.4,10.7,0,0-1.2,1.3-2.7-.4v-24.8s5.1-6.1,5.1-10.9v-7.2s0-.1-.2-.3v-.3s-7.2-11-9.3-10.6l-3.6,2.6-.3,5.2h-11.2s-6.7-.9-13.4-5.3c-3.7-2.3-10-7-15.6-10.8v-33.1h-27.6v138.8H12.7c-2.1,9.2-3.7,18.5-4.7,28h165.2v-81c0,0,0,.1,0,.2,1.6,3.2,2.7,5.1,2.7,5.1l27.5-22.4s4.4-1.9,7.1-1.9,2.4.6,2.6,1v22.1s-7.5-.8-10.4-.8-8.7.9-9.9,3.3c0,0,.1,0,.4.1,0,.1-.2.2-.3.4,0,0,3.2,1,4.2,2.1,1,1.1,2.8,0,5.1,4.5s4.3,5.9,6.9,6.4c2.4.5,4.2.3,4.5.2,0,.9-.1,2.8-1.5,3.3-1.9.7-2.4-.9-6.9,2.1s-12.9,7.9-11.6,18.3c0,0,0,0,0,0,0,.2,0,.4,0,.5,0,0,5.4-5.3,7.2-5.3h9.5s2.6.5,3.2,2.5c0,.1,0,.3,0,.4v73.2s-10.2.6-12.2,1.5c-2,.8-3,2.4-4.6,4,0,0,.3,0,.7,0-.2.2-.4.4-.6.6,0,0,2.3-.5,4.5.6,2.3,1.1,5.2,4.1,6.4,6.2,1.2,2.1,4.1,5,5.8,5.6v8.2s-2.8,2.3-3.9,4.4c-1.1,2.1-3.4,6.5-2.7,13.1,0,0,0,0,0,0,0,.2,0,.4,0,.6,0,0,3-5.3,5.4-5.6.5,0,.9-.1,1.1-.1v23h0v.5h8.2v-23.8s2.9,1,5.3-2.5c.5-.7.9-1.6,1.4-2.5v103.1l-2.3,2.3s-6.5,2.1-10.1.5c0,0-3.9-23.3-16.1-27.3v.5s0,0,0,0l1.1,9c-.3.6-1.9,3.8-1.7,6,0,.4,0,.8,0,1.1.5,1.9,4.7,7.6,6,9.3-1.4,0-6.5-.1-8.7-1-2.6-1-5.9-2.5-10.4-2.1-4.5.4-9.5,4.7-9.6,8.3,0,0,0,0,0,0,0,.2,0,.3,0,.5,0,0,5.4-1.4,6.7-.5,1.3.9,7.4,6.6,7.4,6.6h12.5c-1.8,1.6-7.4,7.1-7.3,10.9,0,.3,0,.7,0,1,0,0,2,.8,2.2,3.1-.3,2.4-4.5,6.4-4.5,6.4h.5c-.3.3-.5.5-.5.5h7.8s10.2-6.4,10.7-12.7c0,0,1.1-4.1,4.8-4.1s7.5,2.1,7.5,9.1c0,0,2.9-.5,3.4-.5s.2-.1.4-.3h0s0,24.4,0,24.4h27.8v-46.6l13.2-9.5s16.8-3,19-11.6c2.1-8.6,0-19.1,13.2-31l-.2-.3c0,0,.1-.1.2-.2l-11-13.8s0-.5,0-1.3c0-4.3,0-15.3,2.3-24,0-.2,0-.3.1-.5h6.8c-2.2,7.4-4,10.8-4,15.9s0,.3,0,.4c0,0,0,0,0,0,0,5.1,1.2,19.2,23.3,30.5,0,0,40.9-1.4,50.7,3.1,9.8,4.5,36.2,39.2,36.2,39.2,0,0,0,0,0,.2,0,1-.9,2.8-5,3.2l-16.7-10.5-8.9-.2-6.1,2.9s.2.1.4.3l-.4.2s3.5,2.3,5,3.9c1.5,1.6,6.4,6.1,9.7,6.1s1.7.4,1.8.9c-.1.9-1.1,2-2.1,2-1.8,0-18.8,1.4-20.2,16.4,0,0,0,0,0,0,0,.2,0,.3,0,.5,0,0,7.9-3.6,11.3-1.5,3.4,2.1,9.6-1.4,14.3-6.1l-.2,6.1s-2.5,2.8-2.5,6.1,0,.2,0,.2c0,0,0,.2,0,.3,0,3.3,2.8,7.6,2.8,7.6,0,0,1.6-7.4,6.4-8,4.8-.6,6.9-.5,8.2-11,0,0,3.3-6.1,9.3-6.2,6-.1,18.2.9,21.5,2,.2,0,.3-.1.2-.5,1.3-1.8-28.7-53.5-28.7-53.5,0,0-.7-23.6-24.4-27.9-3.5-.6-14.8-11.6-25.5-22.7h13.6c.3.2.5.3.8.5,13.7,8.6,29.9,16,44,15.4,14.2-.6,21.4-7.5,24.6-15.4,0-.2.1-.4.2-.6h60.6c2.1-9.1,3.6-18.4,4.7-27.8h-67.4c-4.7-8-13.3-20.4-14.9-22.7ZM311.3,136.2c-.2,0-.3,0-.5-.1-2.7-.7-4.5-6.2-4.5-6.2,0,0-.5,0-.3-.2.4,0,1.5-.2,4.6-.4.2,0,.3,0,.4,0,3.9-.2,5.9,0,8,.7,1.6.6,3.4,1.5,6.1,2.8,5.1,2.5,2.8,4.9-.8,4.9-.8,0-1.7-.2-2.6-.4-1.2-.4-2.4-.6-3.4-.8-2.9-.4-5.1,0-7-.3ZM356.7,121.8c.5-1.4,5.2-1.2,6.5-1.1,0,0,.1,0,.2,0,1.1,1.2,1.1,8.5-2.1,7.6-.6-.2-1.2-.5-1.7-1-2.1-1.9-2.9-5.6-2.9-5.6ZM325.4,115c-2.7,6.1-6.1,5.8-6.1,5.8h0c-4.9-.5-9.5-2.4-11.8-3.8-1-.6-1.5-1.1-1.4-1.4,1.4-5.3,9.1-7.8,9.1-7.8h0c14-1,39.3,5.8,39.5,5.8l1.7,1.8c-3.4,4.1-7.1,3-7.1,3-10,.8-21-9.5-23.7-3.4ZM426,313.2c-9.2,7.1-21.9,3-30.7-1.6h32.5c-.5.5-1.1,1.1-1.8,1.6ZM379.8,228.3v.5h0c1.8,15,14,24.5,14,24.5l30.2,30.4h.1c0,.1-72.4.1-72.4.1-.7-.3-1.4-.6-2-.8-7-2.6-10.2-4.4-11.8-7-.7-1.2-1.1-2.5-1.3-4.2-.6-4.1-1.5-30.5-2-43.4,0,0,0-.1,0-.2h45.2s0,0,0,0ZM264.4,228.2c-4.6,9.2-22.2,43.9-22.5,44.1-.3.2-3.2.7-4.2-.1-.3-1.5-.9-6.1.3-15.5,0,0-.2-1-.7-2.4-1.2-3.5-4.3-11.1-9.5-10.7v8.1s-2.8,4.5-2.8,7.6.1,1.2.4,1.8c.5,1.9,2.1,3.9,2.8,5.8.2.8.3,1.6,0,2.3,0,0-2.4.9-5.7-3.4v-87.9s3.2.4,4.8,4.7c.2.7.4,1.4.4,2.3,0,0,0,0,.1,0,0,.2,0,.4,0,.6,0,0,.3,0,.8.2v42.6h35.8ZM307.3,283.7h-5.7c.9-5.6,1.3-9.7,1.3-9.7,0,0,4.4.5,4.5,8.3,0,.4,0,.9,0,1.4ZM283.7,258.3c.1.9.3,1.7.9,2.2,1.6,1.5,8.4,16.7,9.7,23.2h-38.2c11.6-17,29.2-42.6,38.4-54.9.2-.2.3-.4.5-.6h6.5c-4.6,6.9-17.6,25.5-17.6,25.5,0,0-.6,2.7-.2,4.6ZM292.1,174.9c7.7-3.7,10.5-1.1,10.5-1.1,0,.3,0,.5,0,.7,0,3.7-5.1,4.3-5.1,4.3-12,2.5-16.2,12.9-18.2,17.9-1,2.4-2,3.3-2.8,3.6-.6.2-1.1.1-1.4,0-.2,0-.2,0-.2,0h0c0,0-1.5,0-1.6-2.4,0-1.4.4-3.6,2-7,4.3-9.2,9.1-12.2,16.8-15.9ZM256.4,367.7c0,0,0,.1,0,.2.4.6.6.9.6.9v2l-.7.7v-3.8ZM261.4,312.3c-2.1,3.1-3.7,6.7-4.9,10.6v-11.4h5.5c-.2.3-.4.6-.6.8Z"/>
  <path class="st0" d="M506.1,270.8c0,0,0-.2,0-.3,0,0,0,.2,0,.3Z"/>
  <path class="st0" d="M99.4,61.6h-.1c-13.1,10.6-25,22.5-35.7,35.4,10.7-13,22.7-24.9,35.8-35.4Z"/>
  <path class="st0" d="M461.7,398.8c-.7.9-1.3,1.9-2,2.8.7-.9,1.3-1.9,2-2.8Z"/>
  <path class="st0" d="M506.5,256s0,0,0,0c0,.4,0,.8,0,1.2,0-.4,0-.8,0-1.2Z"/>
  <path class="st0" d="M52,112.2c.3-.5.7-1,1-1.5-.3.5-.7,1-1,1.5Z"/>
  <path class="st0" d="M56.5,106c.5-.7,1-1.4,1.6-2-.5.7-1,1.3-1.6,2Z"/>
  <path class="st0" d="M60.1,101.4c.7-.9,1.4-1.8,2.1-2.7-.7.9-1.4,1.8-2.1,2.7Z"/>
  <path class="st0" d="M48.4,117.4c.3-.4.6-.9.9-1.3-.3.4-.6.9-.9,1.3Z"/>
  <path class="st0" d="M434.6,431.4c-.4.4-.7.7-1.1,1.1.4-.4.7-.7,1.1-1.1Z"/>
  <path class="st0" d="M429,436.9s0,0,0,0c0,0,0,0,0,0Z"/>
  <path class="st0" d="M424.4,441.1c-.4.4-.8.7-1.2,1.1.4-.4.8-.7,1.2-1.1Z"/>
  <path class="st0" d="M419.6,445.3c-.4.4-.8.7-1.3,1.1.4-.4.8-.7,1.3-1.1Z"/>
  <path class="st0" d="M94.8,446.6c-.7-.6-1.3-1.1-2-1.7.7.6,1.3,1.1,2,1.7Z"/>
  <path class="st0" d="M452.7,410.8c-.5.7-1.1,1.4-1.6,2,.5-.7,1.1-1.3,1.6-2Z"/>
  <path class="st0" d="M29.6,361c-.6-1.3-1.2-2.6-1.8-3.9.6,1.3,1.2,2.6,1.8,3.9Z"/>
  <path class="st0" d="M439.1,426.6c-.4.4-.8.9-1.2,1.3.4-.4.8-.9,1.2-1.3Z"/>
  <path class="st0" d="M448.6,415.9c-.5.5-.9,1.1-1.4,1.6.5-.5.9-1.1,1.4-1.6Z"/>
  <path class="st0" d="M443.3,422c-.2.3-.5.5-.7.8.2-.3.5-.5.7-.8Z"/>
  <path class="st0" d="M456.5,405.9c-.5.7-1.1,1.4-1.6,2.1.5-.7,1.1-1.4,1.6-2.1Z"/>
  <path class="st0" d="M90.4,442.7c-.8-.7-1.5-1.4-2.3-2,.8.7,1.5,1.4,2.3,2Z"/>
  <path class="st0" d="M59.6,410c-3.1-4-6.2-8.1-9.1-12.3,2.9,4.2,5.9,8.3,9.1,12.3Z"/>
  <path class="st0" d="M47.4,393c-2.8-4.2-5.4-8.5-7.9-12.8,2.5,4.4,5.1,8.6,7.9,12.8Z"/>
  <path class="st0" d="M50.3,397.4c-.9-1.4-1.9-2.8-2.8-4.2.9,1.4,1.9,2.8,2.8,4.2Z"/>
  <path class="st0" d="M36.6,374.9c-2.3-4.2-4.4-8.4-6.4-12.8,2,4.3,4.2,8.6,6.4,12.8Z"/>
  <path class="st0" d="M39.2,379.7c-.8-1.4-1.5-2.7-2.3-4.1.8,1.4,1.5,2.8,2.3,4.1Z"/>
  <path class="st0" d="M76.1,429c-1-1-2-2.1-3-3.2,1,1.1,2,2.1,3,3.2Z"/>
  <path class="st0" d="M86.1,438.9c-1.8-1.6-3.5-3.3-5.2-5,1.7,1.7,3.5,3.4,5.2,5Z"/>
  <path class="st0" d="M80.1,433.1c-1-1-2-2-2.9-3,1,1,1.9,2,2.9,3Z"/>
  <path class="st0" d="M62.7,413.8c-1-1.3-2.1-2.6-3.1-3.9,1,1.3,2,2.6,3.1,3.9Z"/>
  <path class="st0" d="M72.7,425.3c-3.3-3.6-6.5-7.3-9.6-11.1,3.1,3.8,6.3,7.5,9.6,11.1Z"/>
  <path class="st2" d="M145.4,61.6h-46c-13.1,10.6-25.1,22.4-35.8,35.4-.5.6-.9,1.1-1.4,1.7-.7.9-1.4,1.8-2.1,2.7-.7.9-1.4,1.7-2,2.6-.5.7-1,1.3-1.6,2-1.2,1.6-2.3,3.1-3.5,4.7-.3.5-.7,1-1,1.5-.9,1.3-1.8,2.6-2.7,3.9-.3.4-.6.9-.9,1.3-1.1,1.7-2.2,3.3-3.3,5,0,0,0,0,0,.1-2.4,3.8-4.7,7.7-6.9,11.6,0,.1-.1.3-.2.4-10,17.9-17.8,37.1-23.1,57.4,0,.2,0,.4-.1.6-.5,2-1,4-1.5,6.1,0,.2-.1.5-.2.7,0,.4-.2.8-.3,1.2h132.7V61.6Z"/>
  <line class="st3" x1="99.3" y1="450.4" x2="99.4" y2="450.4"/>
  <path class="st2" d="M12.7,311.5h0c0,0,0,.1,0,.2.3,1.3.6,2.6.9,4,.2.7.3,1.3.5,2,.3,1.3.7,2.6,1,3.8.2.6.3,1.2.5,1.8.7,2.6,1.5,5.1,2.3,7.7.1.4.2.8.4,1.2.4,1.3.8,2.5,1.2,3.8.2.7.4,1.3.7,1.9.4,1.2.9,2.5,1.3,3.7.2.6.4,1.1.6,1.6,1.6,4.2,3.3,8.4,5.1,12.5.2.5.4.9.6,1.4.6,1.3,1.2,2.6,1.8,3.9.2.4.3.7.5,1.1,2,4.3,4.2,8.6,6.4,12.8.1.2.3.5.4.7.8,1.4,1.5,2.8,2.3,4.1,0,.2.2.3.3.5,2.5,4.4,5.1,8.6,7.9,12.8,0,0,0,.1.1.2.9,1.4,1.9,2.8,2.8,4.2,0,0,.1.2.2.3,2.9,4.2,5.9,8.3,9.1,12.3,0,0,0,0,0,0,1,1.3,2,2.6,3.1,3.9.1.1.2.3.4.4,3.1,3.8,6.3,7.5,9.6,11.1.2.2.3.3.5.5,1,1.1,2,2.1,3,3.2.4.4.7.7,1.1,1.1,1,1,1.9,2,2.9,3,.3.3.5.5.8.8,1.7,1.7,3.5,3.4,5.2,5,.6.6,1.3,1.2,1.9,1.8.8.7,1.5,1.4,2.3,2,.8.7,1.7,1.5,2.5,2.2.7.6,1.3,1.1,2,1.7,1.5,1.3,3,2.6,4.6,3.8h45.9v-138.9H12.7Z"/>
  <path class="st2" d="M439.5,312.1c-3.2,7.9-10.4,14.8-24.6,15.4-14.1.6-30.3-6.8-44-15.4-.3-.2-.5-.3-.8-.5h-13.6c10.7,11.1,22,22.1,25.5,22.7,23.7,4.3,24.4,27.9,24.4,27.9,0,0,30,51.7,28.7,53.5,0,.4,0,.6-.2.5-3.3-1.1-15.5-2.1-21.5-2-6,0-9.3,6.2-9.3,6.2-1.3,10.5-3.4,10.4-8.2,11-4.8.6-6.4,8-6.4,8,0,0-2.8-4.3-2.8-7.6s0-.2,0-.3c0,0,0-.2,0-.2,0-3.3,2.5-6.1,2.5-6.1l.2-6.1c-4.7,4.7-10.9,8.2-14.3,6.1-3.4-2.1-11.3,1.5-11.3,1.5,0-.2,0-.4,0-.5,0,0,0,0,0,0,1.4-15,18.4-16.4,20.2-16.4s2-1,2.1-2c-.1-.5-.7-.9-1.8-.9-3.3,0-8.2-4.5-9.7-6.1-1.5-1.6-5-3.9-5-3.9l.4-.2c-.3-.2-.4-.3-.4-.3l6.1-2.9,8.9.2,16.7,10.5c4.2-.4,4.9-2.1,5-3.2,0-.1,0-.2,0-.2,0,0-26.4-34.7-36.2-39.2-9.8-4.5-50.7-3.1-50.7-3.1-22.1-11.3-23.3-25.4-23.3-30.5s0,0,0,0c0-.1,0-.3,0-.4,0-5.1,1.8-8.5,4-15.9h-6.8c0,.2,0,.3-.1.5-2.3,8.7-2.4,19.7-2.3,24,0,.8,0,1.3,0,1.3l11,13.8c0,0-.2.1-.2.2l.2.3c-13.2,11.9-11.1,22.4-13.2,31-2.2,8.6-19,11.6-19,11.6l-13.2,9.5v46.6h0s157.1,0,157.1,0c1.6-1.3,3.2-2.6,4.8-4,.4-.4.8-.7,1.3-1.1,1.2-1,2.4-2.1,3.6-3.2.4-.4.8-.7,1.2-1.1,1.5-1.4,3-2.8,4.5-4.2,0,0,0,0,0,0,1.5-1.5,3-2.9,4.5-4.4.4-.4.7-.7,1.1-1.1,1.1-1.1,2.2-2.3,3.3-3.4.4-.4.8-.9,1.2-1.3,1.2-1.3,2.3-2.5,3.5-3.8.2-.3.5-.5.7-.8,1.3-1.5,2.6-3,3.9-4.5.5-.5.9-1.1,1.4-1.6.8-1,1.7-2,2.5-3,.5-.7,1.1-1.3,1.6-2,.7-.9,1.5-1.9,2.2-2.8.5-.7,1.1-1.4,1.6-2.1,1.1-1.4,2.1-2.9,3.2-4.3.7-.9,1.3-1.9,2-2.8.5-.7.9-1.3,1.4-2,.7-1,1.4-2,2.1-3.1.3-.5.7-1,1-1.6,2.5-3.9,4.9-7.8,7.2-11.8.1-.2.2-.4.4-.6.8-1.4,1.6-2.8,2.4-4.2,0-.1.1-.2.2-.4,6.6-12.1,12.1-24.7,16.7-37.9,0-.2.1-.3.2-.5,1.5-4.4,2.9-8.9,4.2-13.4.2-.7.4-1.3.6-2,.3-1.1.6-2.2.9-3.3.3-1.1.6-2.2.8-3.3.2-.8.4-1.6.6-2.4,0-.3.1-.5.2-.8h-60.6c0,.2-.1.4-.2.6Z"/>
  <path class="st2" d="M426,313.2c.7-.5,1.3-1.1,1.8-1.6h-32.5c8.8,4.6,21.5,8.7,30.7,1.6Z"/>
  <path class="st2" d="M257.1,368.8s-.2-.3-.6-.9c0,0,0-.1,0-.2v3.8l.7-.7v-2Z"/>
  <path class="st2" d="M256.5,322.9c1.2-3.9,2.8-7.5,4.9-10.6.2-.2.4-.5.6-.8h-5.5v11.4Z"/>
  <path class="st2" d="M349.1,118.4s3.7,1.1,7.1-3l-1.7-1.8c-.2,0-25.5-6.8-39.5-5.8h0s-7.7,2.5-9.1,7.8c0,.3.4.8,1.4,1.4,2.3,1.4,6.9,3.2,11.8,3.8h0s3.4.3,6.1-5.8c2.7-6.1,13.7,4.2,23.7,3.4Z"/>
  <path class="st2" d="M260.9,186.4v.2c.2.3.4.5.4.5l-4.7,9.5v.2c0,0,0,3.7,0,3.7h5c5.8-13.8,13.7-29.5,18.6-34.6,8.6-9,32.8-12.5,36.5-13.4,3.8-.9,5.2-4.8,5.2-4.8v-3l-20-2.8s0-.2.1-.5h-.3s1.2-4.3,1.6-4.7-.3-3.5-.5-4.6c-.6-.6-3.9-3.9-5.2-7-.4-.9-.7-1.8-.7-2.6,0-3.8,4-8,7.3-10.8,3.3-2.8,5.2-8.3,5.2-10.7s-4.3-17.6-4.3-17.6h4.4l11.2,5.1v.3h.2v3.3l-6.4,5.5c4.8,5.7,15.2,4.7,15.4,4.7s2.1-1.7,2.1-1.7l.5-1.6-4.4-4.2h0c0-.1-.3-.4-.3-.4v-2.3l9.7-4.6h4.6l6.1,6.1c.5.5.9,1,1,1.4,1.1,1.7-.3,2.4-.3,2.4l-6.8,4.1v2c7.2,3.8,15.7,3.2,15.7,3.2l3.1-3.1c-2.8-.2-4.2-2.1-4.8-3.5-.6-1-.7-1.9-.7-1.9,6.8-8,17.4-.4,17.4-.4v.2c0,.1.2.2.2.2l-9.7,15.1c3.4,1.9,5.1,4.4,5.9,6.2.7,1.5.9,2.7.9,2.7-.8,7.9-8,6.9-8,25.3s-10.4,37.8-14.9,46.5c-.9,1.9-1.8,4.1-2.5,6.4h48.3c5.2-5.8,12-12.3,20.7-20,0,0,0,.2,0,.3,0,0,0,0,.1,0,0-.2,0-.4,0-.6,0,.3.1.4.1.4,3.3-3,6.9-6.1,10.8-9.5,6.8-5.9,11.5-11.6,14.8-16.9,12.6-20.7,1.9-35,1.9-35-13.6-13.6-24.3-7.9-30-3.1-.1.1-.3.2-.4.4,0,0-.2.1-.2.2-1.4,1.2-2.4,2.3-3,2.9-.2.2-.4.4-.6.5,0,0-.1.1-.2.2-1.3,1.8-.3,7.8-.3,7.8,12.7,4.9,13.5,15.2,13.5,24.1s-5.9,19.1-6.7,20.6c0,0,0,.2,0,.5,0-.2-.1-.3-.1-.3,0,0-.1.2-.2.3,0-.5,0-1,0-1.5-.3-6.5-.9-10.7-1.5-13.5-1.4-6-3.1-4.9-3.1-4.9.7,19.4-8.4,22.6-17.9,29.2-9.4,6.5-18.3,20.1-19.4,17.1,0,0-.1-.2-.1-.3-.9-3.3,2-13.2,8.9-22.3,6.9-9,10.7-21.1,10.6-24,0-.6,0-1.1-.2-1.3-.4-.6-1.1.1-1.1.1,0,0-6,5.4-7.2,6.6-1.3,1.2-2.9,0-2.9,0,0,0,0,0,0-.1,0,0-.1,0-.1,0,0-5.9,14.3-18.9,15.6-29.6,1.4-10.7,7.1-22,17.7-25,10.7-3,21-2.6,32.7,7.5,5.1,4.4,7.7,9.1,8.8,13.8,1.5,6.2.8,12.6.4,19.2-.7,11.6-27.5,44.6-30.7,47.8s-2.8,6.5-2.8,7.4h26.4c.5,0,.7.3.8.6,0,.2,0,.4,0,.7h51.9c-12.6-55.5-43.7-104-86.5-138.7,0,0-.2-.1-.2-.2h-157.1v120.9c2.8,2.4,4.7,4.1,4.7,4.1ZM413.6,179.7s0,0,0,0c0,0,0,0,0,0,0,0,0,0,0,0ZM281.9,133.5s-8-3.7-7.5-6.4c.5-2.7,0-4.3,0-4.3,0,0,0,0,.2.2,0-.2,0-.3,0-.3,0,0,4,4.7,9.2,4.3s11.7,6.5,11.7,6.5h-13.5Z"/>
  <path class="st2" d="M363.4,120.8c0,0-.1,0-.2,0-1.3-.1-6-.3-6.5,1.1,0,0,.8,3.7,2.9,5.6.5.4,1.1.8,1.7,1,3.2.9,3.1-6.4,2.1-7.6Z"/>
  <path class="st2" d="M273.3,197.8c.1,2.4,1.6,2.5,1.6,2.5h0c0,0,0,0,.2,0,.3.1.8.2,1.4,0,.8-.3,1.8-1.2,2.8-3.6,2-5,6.2-15.4,18.2-17.9,0,0,5.1-.6,5.1-4.3,0-.2,0-.5,0-.7,0,0-2.8-2.6-10.5,1.1s-12.5,6.7-16.8,15.9c-1.6,3.4-2,5.5-2,7Z"/>
  <path class="st2" d="M324.3,137.7c3.6,0,5.8-2.5.8-4.9-2.7-1.3-4.5-2.3-6.1-2.8-2.1-.7-4.1-.8-8-.7-.2,0-.3,0-.4,0-3.1.2-4.2.3-4.6.4-.2,0,.3.2.3.2,0,0,1.8,5.5,4.5,6.2.2,0,.3,0,.5.1,1.9.3,4.1,0,7,.3,1,.1,2.2.4,3.4.8.9.3,1.8.4,2.6.4Z"/>
  <path class="st1" d="M302.9,274s-.4,4.1-1.3,9.7h5.7c0-.6,0-1,0-1.4-.1-7.8-4.5-8.3-4.5-8.3Z"/>
  <path class="st1" d="M188.6,105.5c6.7,4.4,13.4,5.3,13.4,5.3h11.2l.3-5.2,3.6-2.6c2.1-.4,9.3,10.6,9.3,10.6v.3c.1.2.2.3.2.3v7.2c0,4.8-5.1,10.9-5.1,10.9v24.8c1.5,1.6,2.7.4,2.7.4.3-5.1,2.4-8.5,4.4-10.7V61.6h-55.6v33.1c5.6,3.8,11.9,8.5,15.6,10.8Z"/>
  <path class="st1" d="M295,228.2c-.1.2-.3.4-.5.6-9.2,12.3-26.8,37.9-38.4,54.9h38.2c-1.3-6.5-8.1-21.7-9.7-23.2-.5-.5-.7-1.3-.9-2.2-.4-2,.2-4.6.2-4.6,0,0,13-18.6,17.6-25.5h-6.5Z"/>
  <path class="st1" d="M334.6,228.4c.5,12.9,1.4,39.3,2,43.4.2,1.6.6,3,1.3,4.2,1.6,2.6,4.8,4.4,11.8,7,.6.2,1.3.5,2,.8h72.4-.1c0-.1-30.2-30.5-30.2-30.5,0,0-12.2-9.5-14-24.4h0v-.6s0,0,0,0h-45.2c0,0,0,.1,0,.2Z"/>
  <path class="st1" d="M227.8,185.4c0-.2,0-.4,0-.6,0,0-.1,0-.1,0,0-.9-.3-1.6-.4-2.3-1.5-4.3-4.8-4.7-4.8-4.7v87.9c3.3,4.2,5.7,3.4,5.7,3.4.3-.7.3-1.5,0-2.3-.7-1.9-2.3-3.9-2.8-5.8-.2-.6-.4-1.2-.4-1.8,0-3.1,2.8-7.6,2.8-7.6v-8.1c5.2-.4,8.3,7.2,9.5,10.7.5,1.4.7,2.4.7,2.4-1.2,9.3-.6,14-.3,15.5,1,.8,3.9.3,4.2.1.3-.2,17.9-34.9,22.5-44.1h-35.8v-42.6c-.5-.1-.8-.2-.8-.2Z"/>
  <path class="st1" d="M506.3,264.7c0-.5,0-1,0-1.5,0-2,0-4,0-6,0-.4,0-.8,0-1.2,0,0,0,0,0,0,0-9.4-.5-18.7-1.5-27.8h0s0,.1,0,.1h-64.2l-24.7,14.1c-1.1,1.7,1.1,2.3,1.1,2.3h28c1.3.2.6,2.6.6,2.6h0c0,0,0,.6,0,.6l-22.9,13.2c1.6,2.3,10.2,14.7,14.9,22.7h67.4c.5-4.2.8-8.5,1.1-12.9,0,0,0-.2,0-.3.1-2,.2-3.9.3-5.9Z"/>
  <path class="st1" d="M228.7,426c-.2.2,0,.3-.4.3s-3.4.5-3.4.5c0-7-3.8-9.1-7.5-9.1s-4.8,4.1-4.8,4.1c-.5,6.3-10.7,12.7-10.7,12.7h-7.8s.2-.2.5-.5h-.5s4.2-4,4.5-6.4c-.1-2.2-2.2-3.1-2.2-3.1,0-.3,0-.7,0-1-.1-3.8,5.5-9.3,7.3-10.9h-12.5s-6.1-5.7-7.4-6.6c-1.3-.9-6.7.5-6.7.5,0-.2,0-.3,0-.5,0,0,0,0,0,0,.1-3.6,5.1-7.9,9.6-8.3,4.5-.4,7.8,1.1,10.4,2.1,2.2.9,7.3,1,8.7,1-1.3-1.7-5.5-7.4-6-9.3,0-.3-.1-.7,0-1.1-.1-2.2,1.4-5.4,1.7-6l-1.1-9s0,0,0,0v-.5c12.1,4,16,27.3,16,27.3,3.6,1.6,10.1-.5,10.1-.5l2.3-2.3v-103.1c-.5.9-.9,1.8-1.4,2.5-2.4,3.5-5.3,2.5-5.3,2.5v23.8h-8.2v-.5h0v-23c-.2,0-.6,0-1.1.1-2.4.3-5.4,5.6-5.4,5.6,0-.2,0-.4,0-.6,0,0,0,0,0,0-.7-6.6,1.6-11,2.7-13.1,1.1-2.1,3.9-4.4,3.9-4.4v-8.2c-1.7-.6-4.6-3.5-5.8-5.6-1.2-2.1-4.1-5.1-6.4-6.2-2.2-1.1-4.5-.6-4.5-.6.2-.2.4-.4.6-.6-.4,0-.7,0-.7,0,1.6-1.6,2.6-3.2,4.6-4,2-.9,12.2-1.5,12.2-1.5v-73.2c0-.1,0-.3,0-.4-.6-2-3.2-2.5-3.2-2.5h-9.5c-1.8,0-7.2,5.3-7.2,5.3,0-.2,0-.4,0-.5,0,0,0,0,0,0-1.3-10.4,7.1-15.3,11.6-18.3s5-1.4,6.9-2.1c1.4-.5,1.6-2.4,1.5-3.3-.3,0-2.2.2-4.5-.2-2.6-.5-4.6-1.9-6.9-6.4s-4.1-3.4-5.1-4.5c-1-1.1-4.2-2.1-4.2-2.1,0-.1.2-.3.3-.4-.2,0-.4-.1-.4-.1,1.2-2.4,7-3.3,9.9-3.3s10.4.8,10.4.8v-22.1c-.2-.4-.8-1-2.6-1-2.7,0-7.1,1.9-7.1,1.9l-27.5,22.4s-1.1-1.9-2.7-5.1c0,0,0-.1,0-.2v81H8c-.2,1.4-.3,2.9-.4,4.3,0,.6-.1,1.2-.2,1.8-.1,1.6-.2,3.2-.3,4.8,0,.8-.1,1.6-.2,2.4,0,1.3-.1,2.7-.2,4,0,1.1,0,2.1-.1,3.2,0,1.5,0,3,0,4.5,0,.9,0,1.7,0,2.6,0,0,0,0,0,.1,0,9.4.5,18.7,1.5,27.8h165.1v166.7h55.6v-24.7h0Z"/>
  <path class="st0" d="M283.7,127c-5.2.4-9.2-4.3-9.2-4.3,0,0,0,0,0,.3-.1-.1-.2-.2-.2-.2,0,0,.5,1.6,0,4.3-.5,2.7,7.5,6.4,7.5,6.4h13.5s-6.5-6.9-11.7-6.5Z"/>
</svg>